<svg xmlns="http://www.w3.org/2000/svg" xmlns:xlink="http://www.w3.org/1999/xlink" width="250" zoomAndPan="magnify" viewBox="0 0 187.5 112.499997" height="150" preserveAspectRatio="xMidYMid meet" version="1.0"><defs><g/><clipPath id="0abcdd0fe5"><path d="M 61 24 L 155 24 L 155 112.003906 L 61 112.003906 Z M 61 24 " clip-rule="nonzero"/></clipPath><clipPath id="bd24fe5c02"><path d="M 95 8 L 172 8 L 172 112.003906 L 95 112.003906 Z M 95 8 " clip-rule="nonzero"/></clipPath></defs><g fill="#004aad" fill-opacity="1"><g transform="translate(26.7321, 90.516213)"><g><path d="M 66.765625 -48.90625 C 70.753906 -47.15625 72.75 -45.003906 72.75 -42.453125 C 72.75 -41.390625 72.25 -39.6875 71.25 -37.34375 C 70.25 -35.007812 69.40625 -32.972656 68.71875 -31.234375 L 58.4375 -6.171875 C 57.5 -3.429688 55.941406 -1.5 53.765625 -0.375 C 52.828125 0.0625 51.640625 0.28125 50.203125 0.28125 C 48.773438 0.28125 47.390625 -0.257812 46.046875 -1.34375 C 44.703125 -2.4375 43.816406 -3.546875 43.390625 -4.671875 L 42.640625 -6.265625 C 42.140625 -7.515625 40.300781 -12.375 37.125 -20.84375 C 36.5 -19.351562 35.578125 -16.910156 34.359375 -13.515625 C 33.140625 -10.117188 32.359375 -8 32.015625 -7.15625 C 31.679688 -6.3125 31.46875 -5.75 31.375 -5.46875 C 31.28125 -5.1875 31.015625 -4.671875 30.578125 -3.921875 C 30.140625 -3.179688 29.640625 -2.53125 29.078125 -1.96875 C 27.578125 -0.46875 25.859375 0.28125 23.921875 0.28125 C 21.992188 0.28125 20.375 -0.257812 19.0625 -1.34375 C 17.757812 -2.4375 16.890625 -3.546875 16.453125 -4.671875 L 2.34375 -39.078125 C 1.71875 -40.953125 1.40625 -42.171875 1.40625 -42.734375 C 1.40625 -45.222656 3.179688 -47.1875 6.734375 -48.625 C 8.722656 -49.425781 10.34375 -49.828125 11.59375 -49.828125 C 12.84375 -49.828125 13.851562 -49.5625 14.625 -49.03125 C 15.40625 -48.507812 15.953125 -47.984375 16.265625 -47.453125 C 16.578125 -46.921875 16.828125 -46.375 17.015625 -45.8125 C 18.078125 -43.320312 20.289062 -37.460938 23.65625 -28.234375 L 29.171875 -43.390625 C 29.546875 -44.628906 30.234375 -45.71875 31.234375 -46.65625 C 33.035156 -48.46875 34.867188 -49.375 36.734375 -49.375 C 38.609375 -49.375 40.21875 -48.875 41.5625 -47.875 C 42.90625 -46.875 43.820312 -45.875 44.3125 -44.875 L 45.0625 -43.296875 C 48.175781 -34.566406 50.015625 -29.578125 50.578125 -28.328125 L 56.28125 -43.84375 C 57.78125 -47.832031 60.023438 -49.828125 63.015625 -49.828125 C 64.203125 -49.828125 65.453125 -49.519531 66.765625 -48.90625 Z M 66.765625 -48.90625 "/></g></g></g><g clip-path="url(#0abcdd0fe5)"><path stroke-linecap="butt" transform="matrix(0.350407, 0, 0, 0.350407, 76.568178, 17.668703)" fill="none" stroke-linejoin="miter" d="M 141.392927 143.591992 C 141.392927 151.562629 139.408629 157.459786 135.462327 161.283462 C 131.504878 165.073695 127.134963 166.968811 122.330285 166.968811 L 76.278955 166.968811 C 76.278955 170.614123 78.408174 173.657457 82.67776 176.132256 C 86.980789 178.595908 91.261523 179.82216 95.531109 179.82216 C 103.055836 179.82216 108.952992 179.03067 113.222578 177.458838 L 115.351797 176.700791 C 118.45087 175.27388 121.048295 174.560425 123.132923 174.560425 C 127.268736 174.560425 130.824866 177.469986 133.801313 183.289108 C 135.473475 186.800647 136.309556 189.788243 136.309556 192.251894 C 136.309556 203.756366 122.530944 209.508601 94.962574 209.508601 C 85.386662 209.508601 76.858638 207.869883 69.400797 204.581299 C 61.965252 201.259271 56.168426 196.878208 51.999169 191.449256 C 43.839021 180.981525 39.758947 169.265246 39.758947 156.30042 C 39.758947 139.991271 45.042977 126.948411 55.599891 117.182987 C 66.156804 107.372973 79.344585 102.479113 95.152086 102.479113 C 113.144544 102.479113 126.343473 108.833327 134.748872 121.541755 C 139.174526 128.274992 141.392927 135.621355 141.392927 143.591992 Z M 100.36923 149.288489 C 105.296533 149.288489 107.760184 147.215009 107.760184 143.068048 C 107.760184 140.102748 106.623114 137.717131 104.348974 135.911197 C 102.108278 134.105262 98.864284 133.202295 94.628142 133.202295 C 90.425442 133.202295 86.256186 134.930195 82.109225 138.374848 C 77.962265 141.786058 75.899932 145.43137 75.899932 149.288489 Z M 100.36923 149.288489 " stroke="#fff9f9" stroke-width="14.569275" stroke-opacity="1" stroke-miterlimit="4"/></g><g fill="#004aad" fill-opacity="1"><g transform="translate(88.805055, 90.202999)"><g><path d="M 37.296875 -22.21875 C 37.296875 -19.425781 36.601562 -17.359375 35.21875 -16.015625 C 33.832031 -14.679688 32.300781 -14.015625 30.625 -14.015625 L 14.5 -14.015625 C 14.5 -12.742188 15.242188 -11.675781 16.734375 -10.8125 C 18.234375 -9.957031 19.734375 -9.53125 21.234375 -9.53125 C 23.867188 -9.53125 25.929688 -9.800781 27.421875 -10.34375 L 28.171875 -10.625 C 29.265625 -11.113281 30.175781 -11.359375 30.90625 -11.359375 C 32.351562 -11.359375 33.597656 -10.335938 34.640625 -8.296875 C 35.234375 -7.078125 35.53125 -6.035156 35.53125 -5.171875 C 35.53125 -1.128906 30.695312 0.890625 21.03125 0.890625 C 17.675781 0.890625 14.691406 0.3125 12.078125 -0.84375 C 9.472656 -2.007812 7.441406 -3.539062 5.984375 -5.4375 C 3.128906 -9.113281 1.703125 -13.222656 1.703125 -17.765625 C 1.703125 -23.484375 3.550781 -28.054688 7.25 -31.484375 C 10.945312 -34.910156 15.5625 -36.625 21.09375 -36.625 C 27.40625 -36.625 32.035156 -34.398438 34.984375 -29.953125 C 36.523438 -27.585938 37.296875 -25.007812 37.296875 -22.21875 Z M 22.9375 -20.21875 C 24.664062 -20.21875 25.53125 -20.941406 25.53125 -22.390625 C 25.53125 -23.429688 25.128906 -24.269531 24.328125 -24.90625 C 23.535156 -25.539062 22.398438 -25.859375 20.921875 -25.859375 C 19.453125 -25.859375 17.988281 -25.253906 16.53125 -24.046875 C 15.082031 -22.847656 14.359375 -21.570312 14.359375 -20.21875 Z M 22.9375 -20.21875 "/></g></g></g><g clip-path="url(#bd24fe5c02)"><path stroke-linecap="butt" transform="matrix(0.350407, 0, 0, 0.350407, 121.710951, 17.668703)" fill="none" stroke-linejoin="miter" d="M 7.781086 73.550718 C 7.781086 70.57427 7.870268 68.344721 8.05978 66.862072 C 8.249291 65.379422 8.806679 63.651521 9.720794 61.689518 C 11.526728 58.211422 16.565508 56.472374 24.848282 56.472374 C 32.752032 56.472374 37.690483 58.211422 39.641338 61.689518 C 40.655783 63.651521 41.257761 65.401717 41.447272 66.951253 C 41.670227 68.50079 41.781705 70.763782 41.781705 73.740229 L 41.781705 163.702522 C 41.781705 168.351131 42.160728 171.294136 42.918775 172.520387 C 43.710264 173.757787 45.427017 174.370913 48.091328 174.370913 C 50.744491 174.370913 52.516982 174.471243 53.397654 174.660754 C 54.311769 174.850266 55.426543 175.396505 56.719681 176.321768 C 59.317106 177.99393 60.610244 182.5868 60.610244 190.111527 C 60.610244 198.271676 59.317106 203.254717 56.719681 205.060652 C 53.364211 207.39053 45.337835 207.791849 32.629407 206.242312 C 22.663324 204.949174 16.20878 201.638294 13.232333 196.331968 C 9.598168 189.977754 7.781086 179.877898 7.781086 166.021253 Z M 7.781086 73.550718 " stroke="#fff9f9" stroke-width="14.569275" stroke-opacity="1" stroke-miterlimit="4"/></g><g fill="#004aad" fill-opacity="1"><g transform="translate(121.710951, 90.202999)"><g><path d="M 2.71875 -46.765625 C 2.71875 -47.804688 2.75 -48.585938 2.8125 -49.109375 C 2.882812 -49.628906 3.082031 -50.226562 3.40625 -50.90625 C 4.039062 -52.132812 5.8125 -52.75 8.71875 -52.75 C 11.476562 -52.75 13.203125 -52.132812 13.890625 -50.90625 C 14.242188 -50.226562 14.457031 -49.613281 14.53125 -49.0625 C 14.601562 -48.519531 14.640625 -47.726562 14.640625 -46.6875 L 14.640625 -15.171875 C 14.640625 -13.546875 14.773438 -12.515625 15.046875 -12.078125 C 15.316406 -11.648438 15.914062 -11.4375 16.84375 -11.4375 C 17.769531 -11.4375 18.390625 -11.398438 18.703125 -11.328125 C 19.023438 -11.265625 19.414062 -11.070312 19.875 -10.75 C 20.78125 -10.164062 21.234375 -8.554688 21.234375 -5.921875 C 21.234375 -3.066406 20.78125 -1.320312 19.875 -0.6875 C 18.695312 0.132812 15.882812 0.273438 11.4375 -0.265625 C 7.9375 -0.722656 5.664062 -1.882812 4.625 -3.75 C 3.351562 -5.96875 2.71875 -9.503906 2.71875 -14.359375 Z M 2.71875 -46.765625 "/></g></g></g><g fill="#004aad" fill-opacity="1"><g transform="translate(140.271584, 90.202999)"><g><path d="M 2.71875 -46.765625 C 2.71875 -47.804688 2.75 -48.585938 2.8125 -49.109375 C 2.882812 -49.628906 3.082031 -50.226562 3.40625 -50.90625 C 4.039062 -52.132812 5.8125 -52.75 8.71875 -52.75 C 11.476562 -52.75 13.203125 -52.132812 13.890625 -50.90625 C 14.242188 -50.226562 14.457031 -49.613281 14.53125 -49.0625 C 14.601562 -48.519531 14.640625 -47.726562 14.640625 -46.6875 L 14.640625 -15.171875 C 14.640625 -13.546875 14.773438 -12.515625 15.046875 -12.078125 C 15.316406 -11.648438 15.914062 -11.4375 16.84375 -11.4375 C 17.769531 -11.4375 18.390625 -11.398438 18.703125 -11.328125 C 19.023438 -11.265625 19.414062 -11.070312 19.875 -10.75 C 20.78125 -10.164062 21.234375 -8.554688 21.234375 -5.921875 C 21.234375 -3.066406 20.78125 -1.320312 19.875 -0.6875 C 18.695312 0.132812 15.882812 0.273438 11.4375 -0.265625 C 7.9375 -0.722656 5.664062 -1.882812 4.625 -3.75 C 3.351562 -5.96875 2.71875 -9.503906 2.71875 -14.359375 Z M 2.71875 -46.765625 "/></g></g></g></svg>